<svg width="28" height="28" viewBox="0 0 28 28" fill="none" xmlns="http://www.w3.org/2000/svg">
<path d="M11.8125 1.62267C12.0119 1.61571 12.2113 1.63606 12.4052 1.68312C13.2697 1.89733 13.581 2.46576 13.9989 3.16545C14.053 3.0922 14.179 2.8712 14.2294 2.78363C14.5469 2.23202 14.9394 1.83855 15.5764 1.68353C16.1147 1.54964 16.6842 1.63565 17.159 1.92255C17.6253 2.20593 17.9575 2.66524 18.081 3.1967C18.1766 3.60503 18.1439 4.03287 17.9875 4.42198C17.8431 4.78163 17.3573 5.57063 17.1393 5.94748L15.4913 8.80126L12.4067 14.1431C11.908 15.0068 11.3493 16.0382 10.8303 16.8673C12.2607 16.9126 13.7225 16.8312 15.1553 16.8767C15.2591 16.88 15.3243 16.9725 15.3742 17.0537C15.529 17.3066 15.6744 17.5662 15.8225 17.8232L17.041 19.9363C17.2078 20.2265 17.4528 20.7189 17.6526 20.967C17.0611 20.9892 16.4211 20.9791 15.8264 20.9791L12.8816 20.9795L5.26567 20.9793L3.11504 20.9812C2.18682 20.9816 1.3639 21.0897 0.641061 20.3912C0.247659 20.0134 0.0235498 19.4927 0.0196328 18.9474C0.0141982 18.3982 0.227151 17.8693 0.611632 17.477C0.864042 17.2157 1.18569 17.0316 1.53891 16.9465C1.99564 16.8331 2.83209 16.8741 3.33669 16.8698C4.2529 16.862 5.17825 16.8815 6.09556 16.8685C6.5058 16.1237 6.98193 15.3364 7.41096 14.5934L10.0801 9.96808L11.1111 8.18474C11.2276 7.98347 11.5345 7.48208 11.619 7.28407C11.5222 7.08371 11.3352 6.78055 11.2194 6.58047L10.464 5.27572C10.3108 5.01166 10.1201 4.70349 10.0103 4.42377C9.93582 4.23442 9.88945 4.03521 9.87259 3.83247C9.82784 3.2812 10.0047 2.73483 10.3641 2.3144C10.7434 1.86872 11.2411 1.66947 11.8125 1.62267Z" fill="white"/>
<path d="M17.312 8.96606C17.4195 9.01251 21.3877 16.058 21.9055 16.8584C22.0497 16.8717 22.1957 16.8709 22.3405 16.8711C23.4715 16.8722 24.6023 16.8672 25.7331 16.8705C26.01 16.8713 26.2905 16.8935 26.5561 16.9759C26.8793 17.0762 27.1787 17.2636 27.4133 17.5069C27.7909 17.9004 27.9939 18.4293 27.9769 18.9744C27.9652 19.5209 27.7324 20.0396 27.3319 20.4116C26.7052 20.9969 26.1414 20.9786 25.3492 20.9807C24.9881 20.9844 24.6271 20.9821 24.2662 20.9741C24.4947 21.2926 24.7715 21.8238 24.9696 22.179C25.5143 23.156 26.0822 23.7386 25.8086 24.9139C25.7653 25.039 25.7274 25.1395 25.6675 25.2584C25.4128 25.7553 24.9696 26.1296 24.4368 26.2971C23.5767 26.576 22.5673 26.1833 22.1078 25.4194C21.9101 25.0913 21.7197 24.765 21.5286 24.4332L20.5211 22.6841L17.3171 17.1336L15.6984 14.331C15.5639 14.0985 15.0383 13.2251 14.9805 13.0415C15.0285 12.8556 15.3318 12.3621 15.4446 12.1661L16.1621 10.9216L16.8705 9.69549C16.9972 9.4764 17.1691 9.16177 17.312 8.96606Z" fill="white"/>
<path d="M2.80763 22.6187C3.00167 22.6091 3.20568 22.6105 3.40057 22.6124C4.77072 22.6261 6.14915 22.5908 7.5184 22.621C7.40482 22.7851 7.25627 23.0656 7.15157 23.2475L6.35905 24.6226C6.20032 24.8976 6.01765 25.2351 5.8354 25.4882C5.40574 26.061 4.84233 26.3996 4.10989 26.3795C3.55811 26.3651 3.03477 26.1315 2.65581 25.7302C2.28776 25.3352 2.09299 24.8094 2.11496 24.27C2.1338 23.7684 2.29914 23.4536 2.53811 23.0256C2.61059 22.8958 2.70027 22.718 2.80763 22.6187Z" fill="white"/>
</svg>
