<svg width="48" height="49" viewBox="0 0 48 49" fill="none" xmlns="http://www.w3.org/2000/svg">
<rect width="48" height="49" rx="6" fill="#6E62D9"/>
<path d="M15.2779 17.8818C15.5019 17.875 15.7334 17.8758 15.9577 17.878C17.5133 17.8932 19.0769 17.8559 20.632 17.8837C19.8382 18.6255 19.0744 19.6349 18.5715 20.6151C17.896 21.9316 18.2018 23.7013 19.9468 23.777C20.6907 23.8093 21.4005 23.4926 22.0069 23.0835C22.1353 22.9969 22.2657 22.8253 22.3903 22.7267C22.8766 22.26 24.1137 21.4811 24.7684 21.5094C24.8987 21.584 25.2107 21.8841 25.3313 21.9946L26.2688 22.8532L30.129 26.3869L32.0665 28.1597C32.2982 28.3726 32.6927 28.6999 32.886 28.9297C33.3007 29.4233 33.1795 30.1987 32.6532 30.5849C32.326 30.8258 31.8957 30.8751 31.5226 30.7144C31.2126 30.5796 30.5085 29.8354 30.2282 29.5618L27.986 27.3919L27.3557 26.7818C27.2099 26.6399 26.992 26.3783 26.791 26.3444C26.6202 26.308 26.4535 26.4793 26.4592 26.6433C26.4659 26.8404 26.7976 27.0957 26.9335 27.2252L27.5588 27.833C28.3976 28.6458 29.2378 29.4601 30.0767 30.2729C30.3429 30.5308 30.4973 30.8065 30.494 31.1893C30.4901 31.5154 30.3559 31.8265 30.1213 32.053C29.6754 32.4847 29.0012 32.5246 28.5118 32.1397C28.3574 32.0183 28.2148 31.8558 28.0784 31.7137L25.9374 29.4899L25.3056 28.8319C25.1485 28.6668 24.8995 28.3397 24.659 28.3293C24.4813 28.3121 24.3107 28.5993 24.399 28.7429C24.5238 28.9458 24.7604 29.1508 24.9277 29.3255L26.5679 31.0382C26.6846 31.1601 26.8038 31.2807 26.9185 31.4043C27.2742 31.7879 27.6268 32.0415 27.636 32.6101C27.6437 32.9277 27.5213 33.2347 27.2973 33.4599C27.0771 33.6852 26.7754 33.8122 26.4604 33.8121C25.7854 33.8105 25.5056 33.301 25.0576 32.8843C24.9681 32.8008 24.8823 32.708 24.7954 32.621L22.5258 30.3454C22.421 30.2405 22.317 30.1413 22.156 30.1438C21.9674 30.1468 21.8212 30.3724 21.8974 30.5455C21.9514 30.6682 22.0687 30.7665 22.163 30.8599C22.2477 30.9438 22.335 31.0279 22.42 31.1129L23.9479 32.6426C24.1226 32.8171 24.5765 33.2462 24.6999 33.4219C24.7888 33.5508 24.8438 33.6999 24.8598 33.8557C24.8893 34.1149 24.8126 34.3751 24.6473 34.5769C24.4835 34.7752 24.2562 34.9041 23.9977 34.9312C23.5496 34.9779 23.2063 34.664 22.8675 34.4122L21.984 33.7496C19.6341 31.9837 17.3953 30.0746 15.2804 28.0332C14.7419 27.5091 14.2164 26.9719 13.7043 26.4222C13.4785 26.1812 13.1634 25.7802 12.9238 25.588C13.0877 25.0071 13.2772 24.4102 13.4526 23.8315L14.4033 20.694L14.9635 18.8445C15.0066 18.7023 15.2146 17.9682 15.2779 17.8818Z" fill="#DAD9E8"/>
<path d="M24.5136 16.4603C24.8433 16.4435 25.1733 16.4832 25.4897 16.5776C25.8798 16.696 26.4515 16.9453 26.844 17.1004L29.5765 18.1898L31.2306 18.8462C31.4039 18.9153 31.9198 19.1078 32.0467 19.1977L33.9008 24.2508C34.2503 25.2028 34.62 26.1763 34.9548 27.1316C34.9269 27.181 34.897 27.2294 34.8658 27.2767C34.4898 27.8469 33.9236 28.2931 33.247 28.4333C32.8634 28.0688 32.4751 27.7092 32.0823 27.3546L29.9887 25.4396C29.5531 25.025 29.0742 24.5985 28.6281 24.1921L26.6487 22.3807L25.6731 21.4852C25.5173 21.3414 25.125 20.958 24.9544 20.8702C23.9648 20.8702 22.8936 21.499 22.1465 22.1169C21.9381 22.2893 21.6862 22.5528 21.4809 22.6895C21.0973 22.929 20.6552 23.1177 20.2059 23.1609C19.4848 23.2304 18.8807 22.8554 18.8511 22.0928C18.8058 20.9272 19.8165 19.6977 20.5321 18.8585C21.4204 17.8167 23.1104 16.5546 24.5136 16.4603Z" fill="#DAD9E8"/>
<path d="M37.9997 16.5542C38.251 16.5495 38.5183 16.563 38.7708 16.5715C38.7464 16.9361 38.7666 17.5279 38.7666 17.9118L38.7667 20.5744L38.7653 28.6357L37.4991 28.638C36.1735 28.6412 36.1542 28.5829 35.7122 27.3677L35.3894 26.4887C35.1677 25.8555 34.9188 25.2048 34.6867 24.5735L33.3155 20.8418L32.8867 19.6766C32.7644 19.3459 32.4869 18.7157 32.4736 18.3896C32.4439 17.6544 33.1058 17.4782 33.6689 17.2834C35.0849 16.7933 36.5057 16.5813 37.9997 16.5542Z" fill="#DAD9E8"/>
<path d="M9.25123 15.0846C10.2438 15.0597 11.2227 15.1364 12.1938 15.3639C12.7273 15.4889 14.0003 15.8596 14.443 16.1533C14.5641 16.2327 14.6662 16.338 14.7418 16.4615C14.9953 16.8837 14.7547 17.4217 14.6229 17.8514L14.2373 19.118L13.0512 23.0269C12.8803 23.5933 12.6494 24.2729 12.5052 24.8318C12.3107 25.3431 12.0902 26.5442 11.7498 26.8984C11.63 27.0231 11.4735 27.0929 11.3072 27.1306C11.0738 27.1832 10.824 27.1692 10.5859 27.17C10.1347 27.1715 9.6775 27.1525 9.2274 27.1665C9.24692 26.1284 9.2306 25.0346 9.23071 23.9936L9.23009 17.8672C9.23008 17.6136 9.20844 15.1866 9.25123 15.0846Z" fill="#DAD9E8"/>
</svg>
