<svg width="48" height="49" viewBox="0 0 48 49" fill="none" xmlns="http://www.w3.org/2000/svg">
<rect width="48" height="49" rx="6" fill="#6E62D9"/>
<path d="M24.5 10.0732C25.7067 10.0733 26.886 10.4486 27.8838 11.1504L36.3408 17.0547C37.1598 17.6272 37.8314 18.3978 38.2949 19.3008C38.7584 20.2038 39.0004 21.2111 39 22.2334V33.8262C38.9979 35.4825 38.3609 37.071 37.2285 38.2422C36.0961 39.4132 34.5604 40.0711 32.959 40.0732H16.041C14.4398 40.0711 12.9049 39.4129 11.7725 38.2422C10.64 37.071 10.0021 35.4825 10 33.8262V22.2334C9.99955 21.2111 10.2416 20.2038 10.7051 19.3008C11.1686 18.3978 11.8402 17.6272 12.6592 17.0547L21.1162 11.1504C22.114 10.4486 23.2933 10.0733 24.5 10.0732ZM24.5 27.7881C21.6707 27.7881 16 29.2088 16 32.0381V33.8594C16 34.5271 16.5462 35.073 17.2139 35.0732H31.7861C32.4538 35.073 33 34.527 33 33.8594V32.0381C33 29.2088 27.3293 27.7881 24.5 27.7881ZM24.5 18.0732C22.4843 18.0732 20.8574 19.7011 20.8574 21.7168C20.8576 23.7324 22.4844 25.3594 24.5 25.3594C26.5156 25.3593 28.1307 23.7323 28.1309 21.7168C28.1309 19.7011 26.5157 18.0733 24.5 18.0732Z" fill="#DAD9E8"/>
</svg>
