<svg width="48" height="50" viewBox="0 0 48 50" fill="none" xmlns="http://www.w3.org/2000/svg">
<rect width="48" height="49" rx="6" fill="#6E62D9"/>
<path d="M24.5361 22.6385C27.6747 22.6385 30.1894 20.1049 30.1894 16.9662C30.1894 13.8276 27.6747 11.2939 24.5361 11.2939C21.3974 11.2939 18.8638 13.8276 18.8638 16.9662C18.8638 20.1049 21.3974 22.6385 24.5361 22.6385ZM24.5361 26.42C20.1306 26.42 11.3008 28.6322 11.3008 33.0376V35.8738C11.3008 36.9137 12.1516 37.7645 13.1915 37.7645H35.8806C36.9205 37.7645 37.7714 36.9137 37.7714 35.8738V33.0376C37.7714 28.6322 28.9415 26.42 24.5361 26.42Z" fill="#DAD9E8"/>
</svg>
