<svg width="24" height="24" viewBox="0 0 24 24" fill="none" xmlns="http://www.w3.org/2000/svg">
<path d="M1.50637 0.954834C1.55825 0.988147 1.72925 1.16448 1.78179 1.21735L2.24096 1.67773L4.23414 3.6708L9.68454 9.1214C10.6365 10.0735 11.5971 11.0526 12.558 11.9922C12.4607 12.1207 12.1172 12.4462 11.9839 12.5792L10.8488 13.7141L6.79285 17.7696C6.65466 17.9169 6.48104 18.0821 6.3356 18.2276L5.44268 19.1205L2.71457 21.8479C2.32752 22.2347 1.874 22.6658 1.50825 23.0592C1.23724 22.7049 1.07452 22.2798 1.03974 21.8351C1.01402 21.4904 1.03072 20.9613 1.03073 20.5997L1.03073 18.3282L1.03065 11.2036L1.03059 5.09979L1.03046 3.20812C1.03044 2.42411 0.954079 1.59893 1.50637 0.954834Z" fill="#E9E9E9"/>
<path d="M18.5858 8.19989C18.6756 8.19354 18.9314 8.35529 19.0216 8.40592L19.7548 8.81715L21.1554 9.60016C21.4325 9.75504 21.8191 9.95522 22.0634 10.1423C22.3087 10.3307 22.5139 10.5663 22.6668 10.8353C22.9738 11.3862 23.0509 12.0359 22.8814 12.6434C22.768 13.0489 22.5464 13.4162 22.2402 13.7055C21.9082 14.0171 21.2709 14.334 20.8502 14.5695L18.9908 15.6114C18.8663 15.6813 18.7398 15.7546 18.6122 15.8183C18.4519 15.6838 18.1268 15.3394 17.9686 15.1813L16.6779 13.8909L15.4692 12.682C15.291 12.5038 14.9559 12.1869 14.8066 12.0029C14.8175 11.9398 16.8088 9.96853 17.0074 9.76996L17.9825 8.79505C18.1759 8.60178 18.3867 8.3825 18.5858 8.19989Z" fill="#E9E9E9"/>
<path d="M13.6666 13.1191C13.7754 13.1985 14.0098 13.444 14.1156 13.5499L14.9107 14.3468L16.391 15.8268C16.6385 16.0743 16.9471 16.367 17.1813 16.6222C17.0442 16.6895 16.8831 16.7882 16.7466 16.8652L15.9894 17.2891L13.5361 18.6616L7.44587 22.0687C6.45625 22.6225 5.43968 23.21 4.44578 23.7486C4.31338 23.8195 4.17271 23.8738 4.02697 23.9101C3.96355 23.9259 3.7346 23.9757 3.68924 23.9999H3.12023C3.04506 23.9597 2.93823 23.9529 2.85352 23.9452C3.12155 23.642 3.42898 23.347 3.71636 23.0602L4.97748 21.7997L8.97111 17.8056L12.14 14.6372L13.1366 13.64C13.2782 13.4986 13.5225 13.24 13.6666 13.1191Z" fill="#E9E9E9"/>
<path d="M3.12 0L3.66221 0C3.71455 0.0244076 3.8673 0.0530285 3.93039 0.0657621C4.27971 0.136261 4.56218 0.315598 4.86908 0.487635L5.67754 0.940938L8.20378 2.35433L14.2396 5.73182C15.2146 6.27728 16.2052 6.84654 17.1835 7.37947C16.9009 7.653 16.6146 7.94947 16.3351 8.22896L14.5823 9.98155C14.2896 10.2741 13.9709 10.6066 13.6726 10.8877C12.8976 10.0867 12.0661 9.27947 11.2747 8.48806L6.56984 3.78348L4.01427 1.22776L3.22918 0.442419C3.11812 0.331296 2.9549 0.151604 2.84375 0.0591158C2.93621 0.0486478 3.0333 0.0350522 3.12 0Z" fill="#E9E9E9"/>
</svg>
