<svg width="253" height="271" viewBox="0 0 253 271" fill="none" xmlns="http://www.w3.org/2000/svg">
<path d="M231.66 126.361C231.66 184.521 184.51 231.661 126.36 231.661C68.2003 231.661 21.0703 184.511 21.0703 126.361C21.0703 68.2005 68.2003 21.0605 126.36 21.0605C142.3 21.0605 157.41 24.6006 170.95 30.9406C170.03 33.9406 169.54 37.1405 169.54 40.4305C169.54 58.4805 184.18 73.1205 202.23 73.1205C206.95 73.1205 211.46 72.1105 215.51 70.3005C225.75 86.5305 231.66 105.751 231.66 126.361Z" fill="#E9511D"/>
<path d="M224.289 64.5593C224.069 64.7693 223.839 64.9593 223.609 65.1493C234.809 82.8793 241.309 103.869 241.309 126.349C241.309 189.719 189.749 241.279 126.359 241.279C62.9891 241.279 11.4291 189.719 11.4291 126.349C11.4291 62.9793 62.9891 11.4193 126.359 11.4193C143.759 11.4193 160.269 15.3093 175.049 22.2693C175.209 22.0193 175.379 21.7593 175.569 21.5293C160.639 14.4693 143.949 10.5293 126.359 10.5293C62.4991 10.5293 10.5391 62.4893 10.5391 126.349C10.5391 190.209 62.4991 242.169 126.359 242.169C190.239 242.169 242.199 190.209 242.199 126.349C242.199 103.649 235.629 82.4393 224.299 64.5493L224.289 64.5593Z" fill="#E9511D"/>
<path d="M231.14 55.69C231.1 55.79 231.04 55.9 230.99 55.99C244.93 76.61 252.42 100.92 252.42 126.36C252.42 160.03 239.31 191.69 215.5 215.5C191.7 239.3 160.03 252.42 126.36 252.42C92.69 252.42 61.04 239.3 37.22 215.5C13.42 191.7 0.300003 160.03 0.300003 126.36C0.300003 92.69 13.42 61.03 37.22 37.22C61.04 13.42 92.69 0.299988 126.36 0.299988C146.46 0.299988 165.84 4.98001 183.27 13.82C183.36 13.75 183.45 13.67 183.55 13.61C166.05 4.70999 146.57 0 126.36 0C92.62 0 60.88 13.15 37.01 37.01C13.15 60.87 0 92.61 0 126.36C0 160.12 13.15 191.84 37.01 215.71C60.87 239.57 92.61 252.72 126.36 252.72C160.12 252.72 191.84 239.57 215.71 215.71C239.59 191.85 252.72 160.12 252.72 126.36C252.72 100.8 245.19 76.41 231.15 55.69H231.14Z" fill="#E9511D"/>
<path d="M221.948 47.021C225.627 36.1269 219.778 24.3131 208.884 20.6341C197.99 16.9551 186.176 22.8041 182.497 33.6982C178.818 44.5924 184.667 56.4062 195.562 60.0852C206.456 63.7642 218.27 57.9152 221.948 47.021Z" fill="#242424"/>
</svg>
