<svg width="647" height="647" viewBox="0 0 647 647" fill="none" xmlns="http://www.w3.org/2000/svg">
<path d="M396.552 127.02C505.038 167.403 560.23 288.084 519.854 396.551C479.471 505.037 358.798 560.21 250.33 519.834C141.844 479.451 86.6385 358.808 127.022 250.322C138.09 220.589 155.184 194.862 176.412 174.008C181.369 177.807 186.998 180.943 193.134 183.228C226.803 195.761 264.276 178.618 276.809 144.949C280.087 136.145 281.334 127.031 280.77 118.22C318.154 110.388 358.109 112.71 396.552 127.02Z" fill="#E9511D"/>
<path d="M276.158 97.8571C276.397 98.4132 276.591 98.9741 276.786 99.5351C317.634 90.9544 361.3 93.4043 403.232 109.013C521.436 153.014 581.811 284.989 537.796 403.231C493.796 521.435 361.82 581.809 243.616 537.809C125.412 493.808 65.0375 361.833 109.038 243.629C121.12 211.172 139.84 183.077 163.084 160.341C162.729 159.869 162.362 159.371 162.065 158.857C138.529 181.804 119.592 210.2 107.378 243.011C63.0372 362.129 123.88 495.128 242.998 539.469C362.116 583.81 495.116 522.967 539.457 403.849C583.811 284.693 522.968 151.694 403.85 107.353C361.508 91.5914 317.383 89.1194 276.146 97.8315L276.158 97.8571Z" fill="#E9511D"/>
<path d="M264.37 78.9214C264.528 79.0654 264.692 79.2538 264.825 79.4095C312.967 67.7246 363.513 70.633 410.966 88.2971C473.771 111.676 523.723 158.113 551.604 219.058C579.473 279.978 581.955 348.161 558.577 410.966C535.198 473.771 488.749 523.698 427.816 551.604C366.896 579.473 298.712 581.956 235.908 558.577C173.103 535.198 123.157 488.743 95.27 427.816C67.4151 366.859 64.9184 298.713 88.297 235.908C102.253 198.415 124.439 165.515 153.031 139.141C152.963 138.925 152.876 138.701 152.834 138.473C124.082 164.936 101.77 198.002 87.7374 235.7C64.3102 298.635 66.8005 366.97 94.7325 428.062C122.672 489.135 172.746 535.702 235.699 559.137C298.672 582.578 366.97 580.074 428.062 552.142C489.135 524.202 535.702 474.128 559.136 411.174C582.577 348.202 580.073 279.904 552.141 218.812C524.216 157.702 474.147 111.179 411.174 87.7375C363.497 69.9901 312.774 67.1008 264.377 78.9028L264.37 78.9214Z" fill="#E9511D"/>
<path d="M241.817 90.0473C224.051 75.6206 197.953 78.3279 183.526 96.0943C169.1 113.861 171.807 139.958 189.573 154.385C207.34 168.812 233.437 166.104 247.864 148.338C262.291 130.572 259.583 104.474 241.817 90.0473Z" fill="#E9E9E9"/>
</svg>
