<svg width="591" height="843" viewBox="0 0 591 843" fill="none" xmlns="http://www.w3.org/2000/svg">
<path d="M507 1.5L587.5 110L589 116.5V124.5L587.5 133L584 139.5L466.331 191.37C463.157 192.769 460.369 194.914 458.202 197.623C456.418 199.852 455.096 202.414 454.312 205.159L454.17 205.653C453.074 209.491 452.948 213.541 453.804 217.439L459.305 242.499C460.764 249.147 461.5 255.933 461.5 262.739V273.492C461.5 279.759 460.17 285.955 457.598 291.67L454.951 297.554C453.348 301.116 450.796 304.168 447.574 306.378C440.056 311.533 436.653 320.903 439.111 329.682L451.583 374.225C452.044 375.87 450.807 377.5 449.099 377.5H91.5C85.9772 377.5 81.5 381.977 81.5 387.5V596.5C81.5 602.023 77.0228 606.5 71.5 606.5H11.5C5.97715 606.5 1.5 610.977 1.5 616.5V841.5" stroke="url(#paint0_linear_2358_5942)" stroke-width="3" stroke-linecap="round" stroke-linejoin="round"/>
<defs>
<linearGradient id="paint0_linear_2358_5942" x1="549" y1="21.5" x2="1.50002" y2="801" gradientUnits="userSpaceOnUse">
<stop stop-color="#242424"/>
<stop offset="0.134615" stop-color="#E9511D"/>
<stop offset="0.240385" stop-color="#A94422"/>
<stop offset="0.350851" stop-color="#48291F"/>
<stop offset="0.504808" stop-color="#E9511D"/>
<stop offset="0.610577" stop-color="#642915"/>
<stop offset="0.831731" stop-color="#E9511D"/>
<stop offset="1" stop-color="#242424"/>
</linearGradient>
</defs>
</svg>
